<svg id="Layer_2" data-name="Layer 2" xmlns="http://www.w3.org/2000/svg" viewBox="0 0 900 900"><defs><style>.cls-1{stroke:#000;stroke-miterlimit:10;}</style></defs><path d="M279.23,400.45H330c42,0,71.08,29.32,71.08,75.25,0,45.71-28.43,77.87-71.3,77.87H279.23ZM291,542.63h37c40.46,0,60.37-28.43,60.37-66.27,0-33.69-17.94-65-60.37-65H291Z"/><path d="M357.64,514.34a20.33,20.33,0,0,1-6.09,15.21,21.1,21.1,0,0,1-15.36,5.94H309.42v-117h26.77q9.35,0,15.4,5.95t6.05,15.21Zm-10.39-1.05V440.55a12.47,12.47,0,0,0-3.62-9.31,12.85,12.85,0,0,0-9.39-3.55H319.81V526.3h13.84a14,14,0,0,0,9.83-3.48Q347.25,519.34,347.25,513.29Z"/><path d="M500.23,482.9v1H467.55v-1c5.41,0,9.09-2.51,9.09-7.64V421.59L453,483.87h-1.93L425,421v54.25c.29,5,3.87,7.64,9.09,7.64v1H414v-1c5.41,0,9.09-2.51,9.09-7.64V424.78c0-5.22-3.68-7.64-9.09-7.64v-1h24.76c.48,1.16,19.82,47.58,19.82,47.68l18.09-47.58v-.1h23.59v1c-5.12,0-9.09,2-9.09,6.77v51.35C491.43,480.29,495.11,482.9,500.23,482.9Z"/><path d="M561.65,475.26c2.7,6.68,4.06,7.64,9.18,7.64v1H536.89v-1c4.64,0,9.48-1.25,9.48-5.32a7.3,7.3,0,0,0-.39-2.32c-.19-.38-2.23-5.51-4.84-11.89H519.58l-4.26,11.22a16.41,16.41,0,0,0-1.35,5.22c0,2.32,1.64,3.09,5.41,3.09v1H503.52v-1c5.23,0,7-1.16,9.58-8l22.43-58.71h1.94Zm-41.3-13.83h19.92c-4.54-11.22-10.34-25.14-10.34-25.14Z"/><path d="M611.16,443.93l18.67,30c4.16,6,6.38,9,11.51,9v1H611.16v-1c3.19,0,4.64-.87,4.64-2.7,0-1.26-.77-3-2.22-5.23L601.4,456l-17,21a5.13,5.13,0,0,0-1.35,3c0,1.84,2,2.9,5.8,2.9v1H570.64v-1c3.58,0,8.32-2.7,11.9-6.67l17.79-21.86L582,426c-4-6.19-6.39-8.9-11.51-8.9v-1h31.43v1c-3.19,0-4.74.87-4.74,2.71,0,1.25.77,3,2.32,5.12l10.64,17.22,15.47-19.05a5.64,5.64,0,0,0,1.36-3.1c0-1.84-2-2.9-5.9-2.9v-1H639.4v1c-4.83,0-8.22,2.13-11.89,6.67Z"/><path class="cls-1" d="M490.63,504.42c0,2.22-1.11,4.67-3.33,7.33s-5.59,4.82-10.11,6.47A37.94,37.94,0,0,1,464,520.71a25.59,25.59,0,0,1-10.1-1.64q-8.25,12.1-10.73,14.59a23,23,0,0,1-16.88,7.06q-5.55,0-8.34-2.58a8.74,8.74,0,0,1-2.78-6.7q0-5.7,4.58-10.73a16.39,16.39,0,0,1,12.69-5.56,9.35,9.35,0,0,1,5.3,1.44,4.9,4.9,0,0,1,2.16,4.38q0,2-2.23,4.71c-1.48,1.83-2.39,2.75-2.74,2.75-.09,0-.13-.09-.13-.27a.88.88,0,0,1,.19-.52,10.25,10.25,0,0,0,2.1-5.66,5,5,0,0,0-1.61-4,5.8,5.8,0,0,0-3.95-1.4q-5.51,0-9.72,5c-2.81,3.34-4.22,6.7-4.22,10.11a7.13,7.13,0,0,0,2.06,5.3c1.38,1.35,3.5,2,6.38,2a19.38,19.38,0,0,0,13.8-5.43,38.7,38.7,0,0,0,6.74-9.15l5.69-10.27a150.37,150.37,0,0,0,9.75-20h-1.18a83.19,83.19,0,0,0-17.73,1.93q-8.89,1.94-13.47,5.53c-1.31,1-2,2-2,2.94a2.63,2.63,0,0,0,1.53,2.32,7.18,7.18,0,0,0,3.63.89,21.37,21.37,0,0,0,5.2-.82,11.67,11.67,0,0,0,4.68-2.19,2,2,0,0,1,.92-.53c.35,0,.41.18.19.53a14.34,14.34,0,0,1-7.13,4.12,21.13,21.13,0,0,1-5.82.85,8.06,8.06,0,0,1-4.71-1.28,4,4,0,0,1-1.83-3.46,6.27,6.27,0,0,1,2.36-4.42q4.44-4.32,15.89-6.41a107.56,107.56,0,0,1,18.64-1.44H463a4.19,4.19,0,0,1,2.62-1.24c.78,0,1.17.3,1.17.91a2.08,2.08,0,0,1-.06.46q10.14.72,16.42,3.4Q490.64,499.39,490.63,504.42Zm-3.07-.65q0-4.12-6.67-6.74a47,47,0,0,0-14.59-2.75l-2.09,6.54Q461.72,507,454.66,518a11.44,11.44,0,0,0,2.22.72,24.87,24.87,0,0,0,4.06.46,38.44,38.44,0,0,0,11.44-2.06,28.87,28.87,0,0,0,10.83-6Q487.56,507.1,487.56,503.77Z"/><path class="cls-1" d="M494.88,534q-4.9,0-4.9-5.43a15.08,15.08,0,0,1,1.44-6,26.82,26.82,0,0,1,3.14-5.5,4,4,0,0,1-.85.07c-1,0-1.92-.74-2.62-2.22l-4.84,6.28q-4,5-4.71,5c-.22,0-.33-.08-.33-.26a3.5,3.5,0,0,1,1.12-1.9,61.47,61.47,0,0,0,8-11.18c1-3.8,2.27-5.69,3.8-5.69,1,0,1.5.43,1.5,1.31a6,6,0,0,1-1.63,3.33l-1.58,2.09c0,.92.68,1.38,2,1.38a5.21,5.21,0,0,0,2.62-.85l1.7-1a2.05,2.05,0,0,1,.65-.06,1.61,1.61,0,0,1,1.12.65,1.17,1.17,0,0,1,.39,1.18l-4.51,5.69q-4.2,5.35-4.19,8.47c0,2.07,1,3.11,2.88,3.11s4.47-1.07,7.39-3.21a31.17,31.17,0,0,0,4.77-4.25,15.11,15.11,0,0,1,2.23-2.36c.3,0,.46.17.46.49a1.89,1.89,0,0,1-.59,1.15l-2.1,2.35a37.57,37.57,0,0,1-3.92,3.54Q498.22,534,494.88,534Z"/><path class="cls-1" d="M524.39,519.79q0,2.3-4.39,7.66-5.16,6.34-8.83,6.34h-1a3,3,0,0,1-2.69-1.77,5,5,0,0,1-.78-2.74q0-3.93,5.72-11t9.26-7.09c2.22,0,3.33,1.17,3.33,3.53a10.78,10.78,0,0,1-.32,2.35c0,.13.46.2,1.24.2a9,9,0,0,0,3.6-1.24q-.07,1.11-5.17,3.2A2.65,2.65,0,0,1,524.39,519.79Zm-4.26-3.4q-2.22,0-6.31,5.23c-2.72,3.49-4.09,6.07-4.09,7.72s.53,2.49,1.57,2.49q2.82,0,7.13-5.1t4.32-7.33A9.53,9.53,0,0,1,520.13,516.39Z"/><path class="cls-1" d="M537.8,515.87q0,.39-5.17,9.29a121.45,121.45,0,0,1-7.79,13.41q-5.94,8.49-11.18,8.5a5.85,5.85,0,0,1-3.63-1.28,3.44,3.44,0,0,1-1.67-2.55c0-.85.2-1.27.59-1.27a17.41,17.41,0,0,1,1.34,1.66,3.67,3.67,0,0,0,3,1.67q5.22,0,11.9-11.84a73.63,73.63,0,0,0,5.63-12,34.94,34.94,0,0,1-2.72,2.68c-1.29,1.18-2.07,1.77-2.35,1.77s-.43-.06-.43-.2q0-.59,1.05-1.5a20.51,20.51,0,0,0,2.81-3.47,25.83,25.83,0,0,1,2.09-2.81l2.16-2.29a4.07,4.07,0,0,1,2.85-1.24C537.28,514.43,537.8,514.91,537.8,515.87Zm3.1-8.38a1.86,1.86,0,0,1,.89,1.48,1.82,1.82,0,0,1-.82,1.44,3,3,0,0,1-1.8.62,2.75,2.75,0,0,1-1.8-.69,2.06,2.06,0,0,1-.82-1.6c0-1.27.83-1.9,2.49-1.9A3.12,3.12,0,0,1,540.9,507.49Z"/><path class="cls-1" d="M542.18,534.51a4.14,4.14,0,0,1-1.31-.2q-4.18-1.17-4.19-4.71,0-4.58,5.76-10.59t10.33-6a3.62,3.62,0,0,1,2.46.82,2.53,2.53,0,0,1,.94,2q0,3.66-5.52,7t-9,3.34a3.07,3.07,0,0,1-.91-.13,7.47,7.47,0,0,0-1,3.72q0,3.4,3.23,3.41t8.41-4.39a41.23,41.23,0,0,0,6.8-6.8c.4-.52.73-.78,1-.78s.42.13.42.39a2.18,2.18,0,0,1-.52,1.11,40.35,40.35,0,0,1-8.5,8.24Q545.64,534.51,542.18,534.51Zm12.36-18.84c0-.52-.56-.78-1.67-.78s-2.69.85-4.74,2.55a29.19,29.19,0,0,0-6.41,7.13,2.86,2.86,0,0,0,.85.13c1.66,0,3.87-.89,6.64-2.65s4.5-3.7,5.2-5.79A1.54,1.54,0,0,0,554.54,515.67Z"/><path class="cls-1" d="M560.62,534.51a4.19,4.19,0,0,1-1.31-.2q-4.18-1.17-4.18-4.71,0-4.58,5.75-10.59t10.34-6a3.59,3.59,0,0,1,2.45.82,2.77,2.77,0,0,1,1,2.22,6,6,0,0,1-.85,2.94,2.74,2.74,0,0,1-2.55,1.54c-1.14,0-1.7-.35-1.7-1a5,5,0,0,1,.88-2.19,13.44,13.44,0,0,0,.89-1.57c0-.06-.07-.09-.2-.09q-1.83.2-5,2.61a22.46,22.46,0,0,0-4.35,4.06L559.18,526a7.37,7.37,0,0,0-.94,2.48,11.67,11.67,0,0,0-.3,2.16,2.61,2.61,0,0,0,.82,1.64,2.94,2.94,0,0,0,2.32.91q3.27,0,8.11-3.82a42.23,42.23,0,0,0,7.46-7.3,1,1,0,0,1,.78-.39c.31,0,.46.09.46.26a1.11,1.11,0,0,1-.33.65,38.5,38.5,0,0,1-8.6,8.34Q564,534.51,560.62,534.51Z"/><path class="cls-1" d="M591.23,512.6l9.42-.13c.14.08.2.15.2.19q0,.58-8.14,1.64c-5.43.7-8.37,1.11-8.8,1.24-.83.74-2.36,3-4.58,6.64s-3.34,6.38-3.34,8.08,1.12,2.42,3.34,2.42a12.26,12.26,0,0,0,4.12-1,25.86,25.86,0,0,0,3.93-1.83,41.46,41.46,0,0,0,7.84-6.74c.61-.61,1-.92,1.25-.92s.19.13.19.39-.32.79-1,1.57a29,29,0,0,1-7.65,6.74,18.71,18.71,0,0,1-9.75,3.14,5.67,5.67,0,0,1-3.3-.88c-.85-.59-1.28-1.78-1.28-3.57s.79-4.24,2.36-7.35,2.77-5.44,3.6-7a7.71,7.71,0,0,1-1.57.19c-1.27,0-1.9-.5-1.9-1.5,0-.74.52-1.26,1.57-1.57a3.33,3.33,0,0,0,.59-.07h3.79q1.18-1.5,2.68-3.46c1.22-1.57,2-2.36,2.49-2.36A3.71,3.71,0,0,1,589,507c.65.35,1,.76,1,1.24s-1,1.9-3.14,4.25C587.92,512.58,589.4,512.6,591.23,512.6Z"/><path class="cls-1" d="M605.63,532.68a9.16,9.16,0,0,1-4.68,1.11A5.12,5.12,0,0,1,596.7,532a16,16,0,0,1-2.52-5.82c-.79.78-1.33,1.17-1.64,1.17s-.32-.15-.32-.45a1.1,1.1,0,0,1,.32-.79,97.21,97.21,0,0,1,7.33-7.72l8.24-7.72c2.36-2.22,3.75-3.33,4.19-3.33,1.39,0,2.09.52,2.09,1.57a2.45,2.45,0,0,1-.62,1.54c-.42.5-.72.89-.92,1.17a8.39,8.39,0,0,1-.62.82q-1.17,2-2.39,8.37C609,525,608.42,528,608,529.6q5.43-.06,11.19-7.06c.43-.44.76-.66,1-.66s.32.15.32.43a2.1,2.1,0,0,1-.58,1.15,26.54,26.54,0,0,1-7.07,6.21,21.27,21.27,0,0,1-5.1,1.63Zm-8.84-7.26a4.81,4.81,0,0,0,1.48,3.63,5.07,5.07,0,0,0,6.11.68c.87-.48,1.74-2.48,2.59-6a55.62,55.62,0,0,0,1.53-9.36l.27-2.22a63.79,63.79,0,0,0-7.69,6.93c-2.73,2.84-4.13,4.71-4.22,5.63A4.85,4.85,0,0,0,596.79,525.42Z"/><polygon class="cls-1" points="281.59 382.24 273.91 370.24 415.21 289.12 487.03 363.52 567.67 335.68 636.31 402.88 626.93 413.04 565.75 351.08 499.03 374.08 523.51 402.4 511.99 409.17 413.97 304.96 281.59 382.24"/></svg>